<svg version="1.1" id="Layer_1" xmlns="http://www.w3.org/2000/svg" xmlns:xlink="http://www.w3.org/1999/xlink" x="0px" y="0px"
	 width="100%" viewBox="0 0 1056 532" enable-background="new 0 0 1056 532" xml:space="preserve">
<path fill="#010101" opacity="1.000000" stroke="none" 
	d="
M625.000000,533.000000 
	C416.666656,533.000000 208.833328,533.000000 1.000000,533.000000 
	C1.000000,355.666656 1.000000,178.333328 1.000000,1.000000 
	C353.000000,1.000000 705.000000,1.000000 1057.000000,1.000000 
	C1057.000000,178.333328 1057.000000,355.666656 1057.000000,533.000000 
	C913.166687,533.000000 769.333313,533.000000 625.000000,533.000000 
M273.280609,215.769119 
	C274.492096,216.546661 275.703552,217.324219 276.839722,218.196777 
	C276.839722,218.196777 276.876404,218.312347 276.092896,218.756226 
	C278.122864,222.170380 280.152832,225.584534 282.069885,229.698639 
	C282.150970,230.158249 282.232056,230.617844 281.573456,231.178940 
	C273.332306,220.329773 264.876434,209.634415 256.945923,198.562714 
	C253.301590,193.474899 249.005417,190.811127 242.831024,189.601273 
	C203.318527,181.858948 163.887192,173.702667 124.381233,165.926010 
	C121.685806,165.395416 118.600334,166.846283 115.696251,167.375641 
	C115.797501,167.874405 115.898743,168.373154 115.999992,168.871902 
	C120.552193,169.807083 125.107231,170.728714 129.656158,171.679565 
	C168.080444,179.711212 206.520264,187.670898 244.895889,195.928787 
	C248.002899,196.597382 251.370941,198.736038 253.415466,201.192291 
	C262.039948,211.553543 270.318939,222.210434 278.473053,232.949936 
	C280.756653,235.957550 282.181305,239.617294 283.311157,242.930130 
	C273.850769,231.336853 264.300751,219.814987 254.976547,208.113220 
	C251.511993,203.765289 247.622055,200.685577 241.953049,199.725021 
	C235.071106,198.558945 228.275452,196.878784 221.449127,195.390396 
	C184.228149,187.274780 147.023972,179.080276 109.760468,171.164993 
	C106.899864,170.557358 103.625694,171.896698 100.543747,172.331055 
	C100.567734,172.883575 100.591721,173.436096 100.615707,173.988617 
	C105.241936,175.033737 109.867500,176.081818 114.494499,177.123520 
	C157.172806,186.731766 199.858765,196.306442 242.511917,206.025177 
	C245.139130,206.623795 248.202408,207.745712 249.884995,209.659607 
	C261.246460,222.583038 272.290100,235.785843 282.806854,249.220947 
	C282.530548,249.849243 282.254272,250.477554 281.403687,250.746933 
	C271.065796,239.241699 260.853577,227.618896 250.288651,216.326050 
	C248.056686,213.940277 244.736145,211.948608 241.572235,211.160934 
	C221.896530,206.262619 202.123032,201.757050 182.381119,197.124771 
	C156.306610,191.006592 130.238892,184.859207 104.151176,178.797958 
	C97.553558,177.265076 94.472755,180.010696 94.986420,187.639114 
	C99.539192,182.999588 104.425209,184.196304 109.582954,185.459259 
	C150.106522,195.382065 190.664856,205.163071 231.221710,214.949448 
	C239.059845,216.840790 246.456848,219.214569 252.150864,225.599884 
	C260.125641,234.542862 268.386292,243.249222 276.856720,251.724915 
	C281.810272,256.681549 287.410095,260.992310 292.392120,265.310150 
	C291.522491,263.614502 290.300903,261.232605 289.394165,258.227783 
	C290.725586,256.102905 292.856903,253.958344 289.001068,251.280975 
	C287.289185,248.471588 285.577332,245.662186 284.602173,242.760254 
	C285.951080,243.258453 287.299988,243.756668 288.648865,244.254868 
	C288.928833,243.995438 289.208771,243.736008 289.488739,243.476562 
	C287.832672,240.653030 286.176575,237.829483 284.740692,234.350250 
	C284.829712,233.901291 284.918732,233.452347 285.656250,232.857834 
	C285.342010,230.716354 285.027771,228.574875 285.067322,225.694061 
	C286.654053,222.586700 286.595612,219.874039 282.976440,217.275940 
	C279.576172,211.629868 276.175903,205.983795 273.099762,199.594025 
	C274.470215,194.866348 272.518127,189.431320 267.951050,185.274765 
	C265.039673,180.408554 262.375702,175.366623 259.102356,170.757492 
	C257.673370,168.745377 255.174149,166.694412 252.855682,166.248550 
	C241.648254,164.093292 230.337006,162.477890 219.053146,159.970932 
	C219.041565,159.272476 219.029984,158.574020 219.849258,157.861908 
	C232.210068,159.834976 244.570877,161.808044 256.931671,163.781097 
	C257.006470,163.290024 257.081268,162.798935 257.156067,162.307846 
	C250.945282,161.107208 244.734619,159.906006 238.523712,158.706055 
	C226.042374,156.294647 213.608032,153.592300 201.064499,151.565781 
	C191.145493,149.963242 181.092300,149.191177 170.421402,148.085464 
	C169.643555,148.663513 168.865723,149.241577 168.433594,149.562714 
	C169.446869,150.805023 170.190262,151.716446 170.192261,152.665039 
	C166.014954,152.084808 161.639435,149.901749 157.812653,153.903351 
	C158.282852,154.379211 158.473434,154.754425 158.719406,154.795166 
	C185.913956,159.298645 213.122864,163.716507 240.302216,168.309418 
	C245.588821,169.202789 250.761215,170.771942 255.953964,173.111771 
	C255.881790,173.829697 255.809631,174.547638 254.968979,174.887238 
	C252.261047,174.226654 249.579178,173.421539 246.841171,172.927643 
	C215.767410,167.322174 184.697495,161.692322 153.584961,156.309464 
	C150.601990,155.793365 147.339142,156.894867 144.206238,157.245438 
	C144.222321,157.764709 144.238403,158.283997 144.254486,158.803268 
	C145.804047,159.150635 147.343353,159.554657 148.904663,159.837051 
	C180.957474,165.634705 212.973465,171.653564 245.097260,177.027832 
	C252.462341,178.259995 257.344177,181.264542 259.348907,188.024353 
	C258.818420,188.058868 258.287964,188.093384 257.223206,187.725662 
	C254.270340,181.970932 248.685699,181.576874 243.225388,180.612122 
	C224.738037,177.345734 206.281906,173.902588 187.290619,170.156754 
	C186.867828,170.153839 186.445053,170.150925 185.272980,169.840363 
	C175.456192,168.062164 165.639420,166.283981 155.298325,164.123337 
	C154.870880,164.116714 154.443436,164.110092 153.282990,163.780457 
	C148.894501,162.905579 144.537140,161.741257 140.105804,161.264816 
	C137.464127,160.980759 134.706345,161.776733 131.428314,162.121704 
	C131.152039,162.616837 130.875748,163.111954 130.599472,163.607086 
	C131.066788,163.687073 131.534119,163.767044 132.741226,164.160187 
	C143.192657,166.097931 153.644073,168.035675 164.229065,170.161591 
	C164.229065,170.161591 164.620102,170.047928 165.398254,170.539169 
	C171.613831,171.645645 177.829407,172.752121 184.487808,174.119766 
	C184.993073,174.121262 185.498322,174.122742 186.748093,174.584274 
	C206.150208,178.396332 225.524567,182.359940 244.972702,185.920609 
	C250.247345,186.886307 253.957901,189.030960 256.918365,193.591705 
	C261.346832,200.414017 266.411102,206.826080 271.278809,213.357559 
	C271.855835,214.131821 272.896271,214.560684 273.833832,215.171661 
	C273.833832,215.171661 273.922455,215.099915 273.280609,215.769119 
M779.341248,315.488434 
	C779.341248,279.591736 779.341248,243.695023 779.341248,207.808609 
	C770.230469,207.808609 761.806152,207.808609 753.008545,207.808609 
	C753.008545,229.488129 753.008545,250.869263 753.008545,273.593201 
	C751.601685,271.447723 750.887939,270.429626 750.245239,269.368561 
	C738.436035,249.872803 726.681213,230.343628 714.744812,210.926117 
	C713.794189,209.379776 711.643738,207.698944 709.975586,207.617142 
	C702.831421,207.266846 695.657898,207.434570 688.497864,207.564575 
	C687.290771,207.586517 685.473450,207.996140 684.997131,208.830917 
	C681.495239,214.968277 678.262695,221.259308 674.475037,228.386978 
	C680.445129,228.386978 685.172363,228.386978 690.653015,228.386978 
	C690.653015,261.239349 690.653015,293.607483 690.653015,325.994171 
	C699.648865,325.994171 707.871338,325.994171 716.415283,325.994171 
	C716.415283,304.082001 716.415283,282.564697 716.415283,259.969971 
	C717.534912,261.646759 718.081421,262.405029 718.566589,263.200653 
	C730.519836,282.801178 742.422485,302.432892 754.488708,321.963562 
	C755.588074,323.742920 757.643555,325.977783 759.402649,326.115509 
	C765.789246,326.615540 772.238708,326.312744 779.355530,326.312744 
	C779.355530,322.734314 779.355530,319.608551 779.341248,315.488434 
M345.447723,304.499573 
	C345.447723,311.610870 345.447723,318.722168 345.447723,326.069519 
	C354.781769,326.069519 363.524841,326.069519 372.719177,326.069519 
	C372.719177,310.352753 372.719177,294.935822 372.719177,279.033905 
	C384.060089,279.033905 394.961243,279.033905 406.004761,279.033905 
	C406.004761,270.779297 406.004761,263.018005 406.004761,254.853241 
	C394.818329,254.853241 383.885162,254.853241 372.759216,254.853241 
	C372.759216,246.840836 372.759216,239.234039 372.759216,231.209671 
	C383.396637,231.209671 393.859375,231.279312 404.319183,231.135269 
	C405.904785,231.113449 408.534760,230.472748 408.885101,229.482605 
	C411.354095,222.504486 413.352966,215.360001 415.552643,208.101471 
	C391.890778,208.101471 368.867523,208.101471 345.447571,208.101471 
	C345.447571,240.223770 345.447571,271.861725 345.447723,304.499573 
M804.737305,259.500549 
	C804.541443,280.311798 804.371033,301.123383 804.121582,321.933990 
	C804.085510,324.945557 804.836731,326.546387 808.319946,326.416351 
	C814.474365,326.186554 820.661804,326.069519 826.800598,326.457184 
	C831.097046,326.728516 831.960205,324.649384 831.914795,321.156403 
	C831.839233,315.342682 831.798279,309.528290 831.782959,303.714081 
	C831.761719,295.627625 831.777588,287.541107 831.777588,279.026825 
	C843.146851,279.026825 854.054382,279.026825 865.099487,279.026825 
	C865.099487,270.862457 865.099487,263.133331 865.099487,254.997131 
	C853.934204,254.997131 843.014832,254.997131 831.801025,254.997131 
	C831.801025,246.904602 831.801025,239.219635 831.801025,231.208008 
	C842.429565,231.208008 852.895569,231.278030 863.358582,231.131989 
	C864.914795,231.110275 867.479187,230.441330 867.840942,229.442810 
	C870.354248,222.504944 872.408813,215.400894 874.572998,208.470291 
	C873.475769,207.959946 873.185974,207.707123 872.896179,207.707108 
	C851.248718,207.706085 829.600830,207.793503 807.954041,207.679840 
	C804.016052,207.659180 804.215637,209.979767 804.244324,212.575760 
	C804.413452,227.884109 804.573914,243.192566 804.737305,259.500549 
M646.281189,241.070602 
	C641.722717,240.213867 637.193909,238.858810 632.600769,238.585709 
	C611.476501,237.329742 596.353943,249.325592 593.704712,270.312073 
	C592.578247,279.235382 592.789490,288.559204 594.039978,297.469818 
	C594.879517,303.452118 597.860046,309.512146 601.193909,314.693756 
	C610.390686,328.987885 636.455811,330.029633 649.053955,322.942139 
	C657.002808,318.470306 662.311218,311.704926 665.873047,303.268280 
	C661.015076,301.552734 656.351196,300.255005 652.008118,298.259064 
	C648.669189,296.724579 646.726746,297.235291 644.473511,300.113403 
	C639.482971,306.488007 632.642273,307.035614 625.450439,304.907379 
	C618.724670,302.917084 618.045593,297.107513 617.400024,290.922607 
	C634.111694,290.922607 650.690674,290.922607 667.253784,290.922607 
	C667.253784,284.403198 667.848083,278.226379 667.132751,272.205109 
	C665.534729,258.753540 660.937744,246.920486 646.281189,241.070602 
M502.196228,288.500061 
	C502.196228,272.370087 502.196228,256.240112 502.196228,240.067719 
	C493.714203,240.067719 485.517944,240.067719 476.933350,240.067719 
	C476.933350,261.581818 476.933350,282.683624 476.933350,304.581543 
	C473.260803,304.581543 469.971863,304.693909 466.693176,304.558502 
	C459.566681,304.264130 455.367157,300.709839 453.849548,293.610870 
	C453.331696,291.188507 453.027496,288.672760 453.015503,286.197784 
	C452.941284,270.878815 452.978149,255.559311 452.978149,239.943726 
	C444.303253,239.943726 436.067322,239.943726 427.844971,239.943726 
	C427.630646,240.697128 427.376892,241.164566 427.383026,241.628555 
	C427.628510,260.281952 427.491882,278.952515 428.295502,297.582458 
	C428.906067,311.736938 439.398346,323.113739 452.736877,325.544159 
	C468.053711,328.335083 483.164337,327.469025 498.115295,323.012909 
	C501.181793,322.098907 502.374573,320.793823 502.293152,317.494110 
	C502.063080,308.167664 502.203369,298.832092 502.196228,288.500061 
M932.778748,326.346375 
	C934.382629,326.346375 935.986511,326.346375 937.745728,326.346375 
	C937.745728,294.357788 937.745728,262.972961 937.745728,231.204132 
	C944.091309,231.204132 950.226257,231.314438 956.351318,231.118790 
	C957.711731,231.075333 959.889160,230.260178 960.242981,229.278610 
	C962.749268,222.325745 964.878357,215.236954 967.211487,207.929321 
	C938.342407,207.929321 910.168884,207.929321 881.700073,207.929321 
	C881.700073,215.784912 881.700073,223.211929 881.700073,231.165024 
	C891.241333,231.165024 900.469971,231.165024 910.123535,231.165024 
	C910.123535,263.083801 910.123535,294.480011 910.123535,326.343445 
	C917.667603,326.343445 924.780334,326.343445 932.778748,326.346375 
M518.143616,273.122345 
	C519.250549,278.534546 522.306152,282.778412 527.162903,285.037537 
	C533.746277,288.099823 540.732544,290.283630 547.438416,293.100342 
	C550.439636,294.360931 555.114746,294.599091 554.845642,299.106842 
	C554.589905,303.390442 550.555908,304.648926 546.903687,305.525299 
	C545.467957,305.869873 543.899597,306.083069 542.453735,305.890320 
	C536.377869,305.080139 530.337830,303.991516 524.254578,303.253479 
	C522.948608,303.095032 520.546021,303.656464 520.297913,304.421265 
	C518.426208,310.191498 516.966553,316.095367 515.252991,322.419525 
	C521.056824,323.881470 526.105225,325.713104 531.300354,326.351624 
	C544.361267,327.956940 557.331177,327.861877 568.772400,319.921692 
	C577.551086,313.829254 581.462158,305.327301 580.766968,294.606323 
	C580.068665,283.836761 573.728760,277.813629 564.205444,274.394409 
	C559.052795,272.544464 553.717468,271.151245 548.701416,268.999817 
	C546.808533,268.187958 545.583191,265.819427 544.053589,264.160522 
	C546.058411,262.692657 548.081665,259.964661 550.064514,259.993744 
	C555.952698,260.080048 561.820007,261.295807 567.707336,261.965546 
	C569.018921,262.114746 571.180237,262.334351 571.590088,261.675415 
	C574.865356,256.410187 577.813354,250.941360 580.889465,245.485443 
	C567.297119,239.397446 554.085571,237.660339 541.105957,239.967911 
	C524.293335,242.956924 514.692444,256.397369 518.143616,273.122345 
M150.769150,227.846786 
	C141.810089,224.788773 132.750610,221.991653 123.922615,218.593155 
	C116.371040,215.686020 108.739006,215.349350 100.880836,216.169510 
	C96.742668,216.601379 92.589523,217.186462 88.444611,217.174835 
	C84.166573,217.162842 82.521973,219.047028 82.556351,223.733322 
	C88.911987,223.733322 95.021523,223.768555 101.130493,223.724564 
	C109.117760,223.667053 116.903534,223.815750 124.644547,226.879913 
	C157.697845,239.963547 190.826035,252.869431 224.097961,265.385437 
	C248.564758,274.589233 273.126343,283.422760 293.719269,300.291290 
	C294.615662,301.025543 295.867615,301.325623 296.953949,301.827972 
	C297.421082,301.394928 297.888245,300.961853 298.355377,300.528809 
	C296.872681,298.472046 295.753448,295.957397 293.842346,294.440369 
	C286.807526,288.856140 279.756348,283.223877 272.237915,278.338257 
	C265.607147,274.029449 258.631592,269.974091 251.311508,267.050720 
	C218.144562,253.804962 184.801559,240.999969 150.769150,227.846786 
M271.104950,300.176056 
	C276.398407,302.971863 281.771851,305.628540 286.958527,308.610107 
	C290.694061,310.757477 292.733734,310.046295 293.671692,304.840393 
	C283.331482,299.309387 273.246124,292.604065 262.230713,288.253418 
	C218.635437,271.035065 174.741486,254.573486 130.976593,237.783539 
	C122.140167,234.393539 113.470520,230.621628 103.755905,230.287308 
	C97.773087,230.081436 91.805450,229.332596 85.841705,228.722839 
	C83.339172,228.466980 80.319038,226.669479 79.544205,230.895279 
	C78.660927,235.712418 82.960480,234.098190 84.923157,234.599411 
	C97.298820,237.759827 110.084244,239.626953 122.126488,243.712753 
	C143.048477,250.811371 163.535400,259.194244 184.193619,267.067810 
	C212.925873,278.018646 241.647903,288.996399 271.104950,300.176056 
M218.699890,287.981232 
	C172.124542,271.166260 126.765976,250.896439 78.832878,238.084076 
	C76.536705,243.108749 79.517441,244.381912 82.880707,245.641190 
	C148.210434,270.101807 213.527084,294.597351 278.848145,319.081055 
	C284.033356,321.024628 284.883728,320.578918 287.301788,314.057800 
	C264.690887,305.444855 242.067429,296.827087 218.699890,287.981232 
M134.842911,215.500031 
	C143.450150,218.030441 152.275497,219.991821 160.625854,223.192444 
	C192.141113,235.272018 223.515015,247.721512 254.900085,260.138031 
	C257.946838,261.343384 260.989471,262.917267 263.547424,264.936493 
	C273.215057,272.568115 282.675354,280.462219 292.234375,288.232117 
	C293.172302,288.994507 294.255096,289.578674 295.270630,290.245544 
	C295.678070,289.910767 296.085510,289.575958 296.492920,289.241180 
	C295.003632,286.862701 293.953064,283.999695 291.951263,282.187195 
	C281.706970,272.911530 271.266998,263.848877 260.774109,254.853271 
	C258.530701,252.929993 255.965195,251.138641 253.242233,250.055054 
	C213.251205,234.140793 173.612320,217.264862 131.472443,207.393784 
	C118.255280,204.297729 105.542656,198.893997 91.704559,204.944733 
	C88.195259,206.479156 86.029999,207.792053 86.221237,212.187363 
	C88.200920,212.016556 90.065224,212.138763 91.762436,211.663864 
	C103.822754,208.289154 115.679985,208.407349 127.385231,213.212006 
	C129.530258,214.092484 131.846268,214.556458 134.842911,215.500031 
M269.861420,331.127258 
	C272.689575,329.773102 275.517731,328.418976 279.084167,326.711365 
	C211.554840,299.523590 143.263016,278.724640 77.685822,249.359360 
	C78.118263,251.498672 78.531067,254.318649 80.073494,255.233017 
	C89.797867,260.997528 99.326797,267.463226 109.752266,271.601135 
	C136.787048,282.331329 164.261673,291.951782 191.544220,302.059723 
	C217.429199,311.649902 243.293243,321.296539 269.861420,331.127258 
M245.790329,228.740540 
	C224.432526,219.206924 201.975449,213.240280 179.308334,207.797348 
	C155.220459,202.013229 131.279251,195.619446 107.262138,189.538742 
	C99.503929,187.574509 90.812759,193.091248 90.460045,200.418121 
	C93.513000,199.370956 96.491623,198.462189 99.383255,197.331039 
	C103.731247,195.630219 107.928627,195.628296 112.508453,196.863220 
	C137.546646,203.614578 162.888412,209.342972 187.665955,216.925690 
	C207.493271,222.993469 226.723953,231.052490 246.080978,238.583725 
	C250.469513,240.291183 254.759552,242.938583 258.275665,246.072495 
	C268.712036,255.374542 278.735046,265.140167 288.932709,274.710602 
	C290.337799,276.029266 291.816742,277.269196 293.261505,278.545563 
	C293.741608,278.194092 294.221741,277.842621 294.701874,277.491150 
	C293.153015,274.981293 291.985962,272.104462 289.988312,270.025879 
	C281.912231,261.622742 273.743683,253.293137 265.287415,245.275833 
	C259.282318,239.582474 252.761703,234.432877 245.790329,228.740540 
M163.602005,298.967865 
	C153.288193,295.232361 142.916031,291.649078 132.674942,287.723816 
	C119.066101,282.507721 104.769989,278.811035 93.001198,269.473328 
	C88.415688,265.835052 83.320702,262.838898 78.175690,259.359497 
	C77.068260,263.261414 77.930893,265.606354 80.909317,267.565613 
	C84.235283,269.753448 87.144341,272.566101 90.412865,274.852295 
	C96.379158,279.025513 101.965454,284.383331 108.601219,286.855316 
	C156.417542,304.668091 204.511169,321.735809 252.353790,339.479431 
	C257.863190,341.522736 260.001312,339.010681 263.997894,335.824982 
	C230.103683,323.365631 197.226288,311.280029 163.602005,298.967865 
M184.137833,321.533112 
	C163.508881,314.054932 143.080154,305.945160 122.181038,299.319092 
	C108.084129,294.849609 96.329430,287.497375 85.969757,277.321381 
	C83.438454,274.834991 80.595924,272.665375 77.896484,270.350098 
	C77.359993,270.735046 76.823502,271.119965 76.287003,271.504883 
	C77.234169,273.547943 77.741264,276.005798 79.206612,277.560486 
	C84.799240,283.494141 90.432625,289.446503 96.587379,294.771667 
	C100.262383,297.951355 104.654564,300.753204 109.203857,302.401154 
	C152.034042,317.915955 195.011856,333.023834 237.815582,348.610199 
	C243.183533,350.564911 246.086685,348.919647 249.514145,345.056122 
	C227.670303,337.204742 206.267410,329.511810 184.137833,321.533112 
M88.559052,300.978027 
	C94.292343,309.833832 102.267044,314.989899 112.411705,318.424469 
	C150.054749,331.168732 187.462036,344.615448 224.859818,358.070862 
	C229.925842,359.893555 232.432281,358.012604 234.980820,354.509033 
	C234.634674,354.080933 234.556839,353.883087 234.425262,353.836273 
	C192.438843,338.903900 150.408997,324.091553 108.513107,308.909576 
	C103.719505,307.172516 99.159096,303.919922 95.398064,300.400330 
	C89.008888,294.421265 83.342049,287.670349 77.371651,281.243805 
	C76.872795,281.438904 76.373932,281.634003 75.875076,281.829102 
	C76.726036,284.215027 77.109703,286.934784 78.525826,288.916931 
	C81.420692,292.968842 84.870598,296.624237 88.559052,300.978027 
M189.319717,359.007843 
	C196.848984,361.637817 204.471344,364.034027 211.873901,366.982147 
	C216.594406,368.862122 219.091400,366.682404 221.833771,363.527069 
	C221.107056,363.019958 220.861542,362.757080 220.560837,362.651825 
	C184.177567,349.913513 147.881805,336.914032 111.340500,324.646027 
	C101.866417,321.465332 94.509735,316.784424 89.100906,308.408936 
	C85.581352,302.958984 81.180305,298.078308 77.174179,292.942627 
	C76.670700,293.195557 76.167229,293.448486 75.663757,293.701416 
	C76.470451,296.054474 76.837631,298.697205 78.163200,300.708252 
	C82.829643,307.787659 87.496506,314.917725 92.838326,321.478973 
	C95.401756,324.627563 99.132339,327.507050 102.923172,328.866760 
	C131.386459,339.076202 159.996658,348.876129 189.319717,359.007843 
M158.928421,354.723541 
	C138.127548,347.725922 117.574860,339.951019 96.258820,334.367584 
	C106.097382,340.476013 115.960350,346.546967 126.606133,350.520813 
	C150.117386,359.297089 174.094223,366.819092 197.710236,375.327148 
	C202.748947,377.142426 205.718781,376.102661 208.859192,371.987183 
	C192.297974,366.248688 175.990524,360.598114 158.928421,354.723541 
M193.676376,379.575836 
	C183.926941,376.469269 174.177505,373.362701 164.428085,370.256165 
	C164.199478,370.826111 163.970886,371.396027 163.742294,371.965973 
	C166.680847,373.558899 169.589874,375.209503 172.564499,376.731964 
	C177.718506,379.369873 182.795212,382.230377 188.165894,384.327759 
	C189.685593,384.921234 192.179230,383.324463 194.075226,382.416809 
	C194.498276,382.214294 194.285736,380.684082 193.676376,379.575836 
M75.607574,304.575012 
	C75.726776,306.341309 75.296356,308.409515 76.069260,309.816772 
	C78.301285,313.880646 80.626686,318.019318 83.649963,321.488525 
	C86.942703,325.266937 89.072838,330.556030 94.889877,331.665344 
	C88.666565,322.509003 82.457291,313.373322 75.607574,304.575012 
z"/>
<path fill="#FDFDFD" opacity="1.000000" stroke="none" 
	d="
M779.348389,315.985596 
	C779.355530,319.608551 779.355530,322.734314 779.355530,326.312744 
	C772.238708,326.312744 765.789246,326.615540 759.402649,326.115509 
	C757.643555,325.977783 755.588074,323.742920 754.488708,321.963562 
	C742.422485,302.432892 730.519836,282.801178 718.566589,263.200653 
	C718.081421,262.405029 717.534912,261.646759 716.415283,259.969971 
	C716.415283,282.564697 716.415283,304.082001 716.415283,325.994171 
	C707.871338,325.994171 699.648865,325.994171 690.653015,325.994171 
	C690.653015,293.607483 690.653015,261.239349 690.653015,228.386978 
	C685.172363,228.386978 680.445129,228.386978 674.475037,228.386978 
	C678.262695,221.259308 681.495239,214.968277 684.997131,208.830917 
	C685.473450,207.996140 687.290771,207.586517 688.497864,207.564575 
	C695.657898,207.434570 702.831421,207.266846 709.975586,207.617142 
	C711.643738,207.698944 713.794189,209.379776 714.744812,210.926117 
	C726.681213,230.343628 738.436035,249.872803 750.245239,269.368561 
	C750.887939,270.429626 751.601685,271.447723 753.008545,273.593201 
	C753.008545,250.869263 753.008545,229.488129 753.008545,207.808609 
	C761.806152,207.808609 770.230469,207.808609 779.341248,207.808609 
	C779.341248,243.695023 779.341248,279.591736 779.348389,315.985596 
z"/>
<path fill="#FAFAFA" opacity="1.000000" stroke="none" 
	d="
M345.447632,303.999634 
	C345.447571,271.861725 345.447571,240.223770 345.447571,208.101471 
	C368.867523,208.101471 391.890778,208.101471 415.552643,208.101471 
	C413.352966,215.360001 411.354095,222.504486 408.885101,229.482605 
	C408.534760,230.472748 405.904785,231.113449 404.319183,231.135269 
	C393.859375,231.279312 383.396637,231.209671 372.759216,231.209671 
	C372.759216,239.234039 372.759216,246.840836 372.759216,254.853241 
	C383.885162,254.853241 394.818329,254.853241 406.004761,254.853241 
	C406.004761,263.018005 406.004761,270.779297 406.004761,279.033905 
	C394.961243,279.033905 384.060089,279.033905 372.719177,279.033905 
	C372.719177,294.935822 372.719177,310.352753 372.719177,326.069519 
	C363.524841,326.069519 354.781769,326.069519 345.447723,326.069519 
	C345.447723,318.722168 345.447723,311.610870 345.447632,303.999634 
z"/>
<path fill="#FDFDFD" opacity="1.000000" stroke="none" 
	d="
M804.737305,259.000763 
	C804.573914,243.192566 804.413452,227.884109 804.244324,212.575760 
	C804.215637,209.979767 804.016052,207.659180 807.954041,207.679840 
	C829.600830,207.793503 851.248718,207.706085 872.896179,207.707108 
	C873.185974,207.707123 873.475769,207.959946 874.572998,208.470291 
	C872.408813,215.400894 870.354248,222.504944 867.840942,229.442810 
	C867.479187,230.441330 864.914795,231.110275 863.358582,231.131989 
	C852.895569,231.278030 842.429565,231.208008 831.801025,231.208008 
	C831.801025,239.219635 831.801025,246.904602 831.801025,254.997131 
	C843.014832,254.997131 853.934204,254.997131 865.099487,254.997131 
	C865.099487,263.133331 865.099487,270.862457 865.099487,279.026825 
	C854.054382,279.026825 843.146851,279.026825 831.777588,279.026825 
	C831.777588,287.541107 831.761719,295.627625 831.782959,303.714081 
	C831.798279,309.528290 831.839233,315.342682 831.914795,321.156403 
	C831.960205,324.649384 831.097046,326.728516 826.800598,326.457184 
	C820.661804,326.069519 814.474365,326.186554 808.319946,326.416351 
	C804.836731,326.546387 804.085510,324.945557 804.121582,321.933990 
	C804.371033,301.123383 804.541443,280.311798 804.737305,259.000763 
z"/>
<path fill="#FBFBFB" opacity="1.000000" stroke="none" 
	d="
M646.643066,241.216568 
	C660.937744,246.920486 665.534729,258.753540 667.132751,272.205109 
	C667.848083,278.226379 667.253784,284.403198 667.253784,290.922607 
	C650.690674,290.922607 634.111694,290.922607 617.400024,290.922607 
	C618.045593,297.107513 618.724670,302.917084 625.450439,304.907379 
	C632.642273,307.035614 639.482971,306.488007 644.473511,300.113403 
	C646.726746,297.235291 648.669189,296.724579 652.008118,298.259064 
	C656.351196,300.255005 661.015076,301.552734 665.873047,303.268280 
	C662.311218,311.704926 657.002808,318.470306 649.053955,322.942139 
	C636.455811,330.029633 610.390686,328.987885 601.193909,314.693756 
	C597.860046,309.512146 594.879517,303.452118 594.039978,297.469818 
	C592.789490,288.559204 592.578247,279.235382 593.704712,270.312073 
	C596.353943,249.325592 611.476501,237.329742 632.600769,238.585709 
	C637.193909,238.858810 641.722717,240.213867 646.643066,241.216568 
M619.208374,271.859375 
	C626.941162,271.859375 634.674011,271.859375 642.515991,271.859375 
	C640.864014,262.828064 637.100830,259.538361 629.458618,259.870026 
	C622.991638,260.150696 619.032288,264.337708 619.208374,271.859375 
z"/>
<path fill="#FBFBFB" opacity="1.000000" stroke="none" 
	d="
M502.196960,289.000092 
	C502.203369,298.832092 502.063080,308.167664 502.293152,317.494110 
	C502.374573,320.793823 501.181793,322.098907 498.115295,323.012909 
	C483.164337,327.469025 468.053711,328.335083 452.736877,325.544159 
	C439.398346,323.113739 428.906067,311.736938 428.295502,297.582458 
	C427.491882,278.952515 427.628510,260.281952 427.383026,241.628555 
	C427.376892,241.164566 427.630646,240.697128 427.844971,239.943726 
	C436.067322,239.943726 444.303253,239.943726 452.978149,239.943726 
	C452.978149,255.559311 452.941284,270.878815 453.015503,286.197784 
	C453.027496,288.672760 453.331696,291.188507 453.849548,293.610870 
	C455.367157,300.709839 459.566681,304.264130 466.693176,304.558502 
	C469.971863,304.693909 473.260803,304.581543 476.933350,304.581543 
	C476.933350,282.683624 476.933350,261.581818 476.933350,240.067719 
	C485.517944,240.067719 493.714203,240.067719 502.196228,240.067719 
	C502.196228,256.240112 502.196228,272.370087 502.196960,289.000092 
z"/>
<path fill="#FCFCFC" opacity="1.000000" stroke="none" 
	d="
M932.335938,326.344910 
	C924.780334,326.343445 917.667603,326.343445 910.123535,326.343445 
	C910.123535,294.480011 910.123535,263.083801 910.123535,231.165024 
	C900.469971,231.165024 891.241333,231.165024 881.700073,231.165024 
	C881.700073,223.211929 881.700073,215.784912 881.700073,207.929321 
	C910.168884,207.929321 938.342407,207.929321 967.211487,207.929321 
	C964.878357,215.236954 962.749268,222.325745 960.242981,229.278610 
	C959.889160,230.260178 957.711731,231.075333 956.351318,231.118790 
	C950.226257,231.314438 944.091309,231.204132 937.745728,231.204132 
	C937.745728,262.972961 937.745728,294.357788 937.745728,326.346375 
	C935.986511,326.346375 934.382629,326.346375 932.335938,326.344910 
z"/>
<path fill="#FBFBFB" opacity="1.000000" stroke="none" 
	d="
M518.073120,272.716492 
	C514.692444,256.397369 524.293335,242.956924 541.105957,239.967911 
	C554.085571,237.660339 567.297119,239.397446 580.889465,245.485443 
	C577.813354,250.941360 574.865356,256.410187 571.590088,261.675415 
	C571.180237,262.334351 569.018921,262.114746 567.707336,261.965546 
	C561.820007,261.295807 555.952698,260.080048 550.064514,259.993744 
	C548.081665,259.964661 546.058411,262.692657 544.053589,264.160522 
	C545.583191,265.819427 546.808533,268.187958 548.701416,268.999817 
	C553.717468,271.151245 559.052795,272.544464 564.205444,274.394409 
	C573.728760,277.813629 580.068665,283.836761 580.766968,294.606323 
	C581.462158,305.327301 577.551086,313.829254 568.772400,319.921692 
	C557.331177,327.861877 544.361267,327.956940 531.300354,326.351624 
	C526.105225,325.713104 521.056824,323.881470 515.252991,322.419525 
	C516.966553,316.095367 518.426208,310.191498 520.297913,304.421265 
	C520.546021,303.656464 522.948608,303.095032 524.254578,303.253479 
	C530.337830,303.991516 536.377869,305.080139 542.453735,305.890320 
	C543.899597,306.083069 545.467957,305.869873 546.903687,305.525299 
	C550.555908,304.648926 554.589905,303.390442 554.845642,299.106842 
	C555.114746,294.599091 550.439636,294.360931 547.438416,293.100342 
	C540.732544,290.283630 533.746277,288.099823 527.162903,285.037537 
	C522.306152,282.778412 519.250549,278.534546 518.073120,272.716492 
z"/>
<path fill="#F3F3F3" opacity="1.000000" stroke="none" 
	d="
M151.145538,227.941544 
	C184.801559,240.999969 218.144562,253.804962 251.311508,267.050720 
	C258.631592,269.974091 265.607147,274.029449 272.237915,278.338257 
	C279.756348,283.223877 286.807526,288.856140 293.842346,294.440369 
	C295.753448,295.957397 296.872681,298.472046 298.355377,300.528809 
	C297.888245,300.961853 297.421082,301.394928 296.953949,301.827972 
	C295.867615,301.325623 294.615662,301.025543 293.719269,300.291290 
	C273.126343,283.422760 248.564758,274.589233 224.097961,265.385437 
	C190.826035,252.869431 157.697845,239.963547 124.644547,226.879913 
	C116.903534,223.815750 109.117760,223.667053 101.130493,223.724564 
	C95.021523,223.768555 88.911987,223.733322 82.556351,223.733322 
	C82.521973,219.047028 84.166573,217.162842 88.444611,217.174835 
	C92.589523,217.186462 96.742668,216.601379 100.880836,216.169510 
	C108.739006,215.349350 116.371040,215.686020 123.922615,218.593155 
	C132.750610,221.991653 141.810089,224.788773 151.145538,227.941544 
z"/>
<path fill="#F4F4F4" opacity="1.000000" stroke="none" 
	d="
M270.739624,300.069336 
	C241.647903,288.996399 212.925873,278.018646 184.193619,267.067810 
	C163.535400,259.194244 143.048477,250.811371 122.126488,243.712753 
	C110.084244,239.626953 97.298820,237.759827 84.923157,234.599411 
	C82.960480,234.098190 78.660927,235.712418 79.544205,230.895279 
	C80.319038,226.669479 83.339172,228.466980 85.841705,228.722839 
	C91.805450,229.332596 97.773087,230.081436 103.755905,230.287308 
	C113.470520,230.621628 122.140167,234.393539 130.976593,237.783539 
	C174.741486,254.573486 218.635437,271.035065 262.230713,288.253418 
	C273.246124,292.604065 283.331482,299.309387 293.671692,304.840393 
	C292.733734,310.046295 290.694061,310.757477 286.958527,308.610107 
	C281.771851,305.628540 276.398407,302.971863 270.739624,300.069336 
z"/>
<path fill="#F4F3F3" opacity="1.000000" stroke="none" 
	d="
M219.071930,288.095276 
	C242.067429,296.827087 264.690887,305.444855 287.301788,314.057800 
	C284.883728,320.578918 284.033356,321.024628 278.848145,319.081055 
	C213.527084,294.597351 148.210434,270.101807 82.880707,245.641190 
	C79.517441,244.381912 76.536705,243.108749 78.832878,238.084076 
	C126.765976,250.896439 172.124542,271.166260 219.071930,288.095276 
z"/>
<path fill="#F2F2F2" opacity="1.000000" stroke="none" 
	d="
M134.463135,215.356354 
	C131.846268,214.556458 129.530258,214.092484 127.385231,213.212006 
	C115.679985,208.407349 103.822754,208.289154 91.762436,211.663864 
	C90.065224,212.138763 88.200920,212.016556 86.221237,212.187363 
	C86.029999,207.792053 88.195259,206.479156 91.704559,204.944733 
	C105.542656,198.893997 118.255280,204.297729 131.472443,207.393784 
	C173.612320,217.264862 213.251205,234.140793 253.242233,250.055054 
	C255.965195,251.138641 258.530701,252.929993 260.774109,254.853271 
	C271.266998,263.848877 281.706970,272.911530 291.951263,282.187195 
	C293.953064,283.999695 295.003632,286.862701 296.492920,289.241180 
	C296.085510,289.575958 295.678070,289.910767 295.270630,290.245544 
	C294.255096,289.578674 293.172302,288.994507 292.234375,288.232117 
	C282.675354,280.462219 273.215057,272.568115 263.547424,264.936493 
	C260.989471,262.917267 257.946838,261.343384 254.900085,260.138031 
	C223.515015,247.721512 192.141113,235.272018 160.625854,223.192444 
	C152.275497,219.991821 143.450150,218.030441 134.463135,215.356354 
z"/>
<path fill="#F3F3F3" opacity="1.000000" stroke="none" 
	d="
M269.513977,331.022766 
	C243.293243,321.296539 217.429199,311.649902 191.544220,302.059723 
	C164.261673,291.951782 136.787048,282.331329 109.752266,271.601135 
	C99.326797,267.463226 89.797867,260.997528 80.073494,255.233017 
	C78.531067,254.318649 78.118263,251.498672 77.685822,249.359360 
	C143.263016,278.724640 211.554840,299.523590 279.084167,326.711365 
	C275.517731,328.418976 272.689575,329.773102 269.513977,331.022766 
z"/>
<path fill="#EFEFEE" opacity="1.000000" stroke="none" 
	d="
M246.130768,228.890564 
	C252.761703,234.432877 259.282318,239.582474 265.287415,245.275833 
	C273.743683,253.293137 281.912231,261.622742 289.988312,270.025879 
	C291.985962,272.104462 293.153015,274.981293 294.701874,277.491150 
	C294.221741,277.842621 293.741608,278.194092 293.261505,278.545563 
	C291.816742,277.269196 290.337799,276.029266 288.932709,274.710602 
	C278.735046,265.140167 268.712036,255.374542 258.275665,246.072495 
	C254.759552,242.938583 250.469513,240.291183 246.080978,238.583725 
	C226.723953,231.052490 207.493271,222.993469 187.665955,216.925690 
	C162.888412,209.342972 137.546646,203.614578 112.508453,196.863220 
	C107.928627,195.628296 103.731247,195.630219 99.383255,197.331039 
	C96.491623,198.462189 93.513000,199.370956 90.460045,200.418121 
	C90.812759,193.091248 99.503929,187.574509 107.262138,189.538742 
	C131.279251,195.619446 155.220459,202.013229 179.308334,207.797348 
	C201.975449,213.240280 224.432526,219.206924 246.130768,228.890564 
z"/>
<path fill="#F2F2F2" opacity="1.000000" stroke="none" 
	d="
M163.975433,299.081146 
	C197.226288,311.280029 230.103683,323.365631 263.997894,335.824982 
	C260.001312,339.010681 257.863190,341.522736 252.353790,339.479431 
	C204.511169,321.735809 156.417542,304.668091 108.601219,286.855316 
	C101.965454,284.383331 96.379158,279.025513 90.412865,274.852295 
	C87.144341,272.566101 84.235283,269.753448 80.909317,267.565613 
	C77.930893,265.606354 77.068260,263.261414 78.175690,259.359497 
	C83.320702,262.838898 88.415688,265.835052 93.001198,269.473328 
	C104.769989,278.811035 119.066101,282.507721 132.674942,287.723816 
	C142.916031,291.649078 153.288193,295.232361 163.975433,299.081146 
z"/>
<path fill="#F2F1F1" opacity="1.000000" stroke="none" 
	d="
M184.501160,321.676025 
	C206.267410,329.511810 227.670303,337.204742 249.514145,345.056122 
	C246.086685,348.919647 243.183533,350.564911 237.815582,348.610199 
	C195.011856,333.023834 152.034042,317.915955 109.203857,302.401154 
	C104.654564,300.753204 100.262383,297.951355 96.587379,294.771667 
	C90.432625,289.446503 84.799240,283.494141 79.206612,277.560486 
	C77.741264,276.005798 77.234169,273.547943 76.287003,271.504883 
	C76.823502,271.119965 77.359993,270.735046 77.896484,270.350098 
	C80.595924,272.665375 83.438454,274.834991 85.969757,277.321381 
	C96.329430,287.497375 108.084129,294.849609 122.181038,299.319092 
	C143.080154,305.945160 163.508881,314.054932 184.501160,321.676025 
z"/>
<path fill="#EDEDEB" opacity="1.000000" stroke="none" 
	d="
M289.079315,258.850708 
	C290.300903,261.232605 291.522491,263.614502 292.392120,265.310150 
	C287.410095,260.992310 281.810272,256.681549 276.856720,251.724915 
	C268.386292,243.249222 260.125641,234.542862 252.150864,225.599884 
	C246.456848,219.214569 239.059845,216.840790 231.221710,214.949448 
	C190.664856,205.163071 150.106522,195.382065 109.582954,185.459259 
	C104.425209,184.196304 99.539192,182.999588 94.986420,187.639114 
	C94.472755,180.010696 97.553558,177.265076 104.151176,178.797958 
	C130.238892,184.859207 156.306610,191.006592 182.381119,197.124771 
	C202.123032,201.757050 221.896530,206.262619 241.572235,211.160934 
	C244.736145,211.948608 248.056686,213.940277 250.288651,216.326050 
	C260.853577,227.618896 271.065796,239.241699 281.790131,251.244324 
	C284.477478,254.111389 286.778412,256.481049 289.079315,258.850708 
z"/>
<path fill="#F1F0F0" opacity="1.000000" stroke="none" 
	d="
M88.325485,300.710480 
	C84.870598,296.624237 81.420692,292.968842 78.525826,288.916931 
	C77.109703,286.934784 76.726036,284.215027 75.875076,281.829102 
	C76.373932,281.634003 76.872795,281.438904 77.371651,281.243805 
	C83.342049,287.670349 89.008888,294.421265 95.398064,300.400330 
	C99.159096,303.919922 103.719505,307.172516 108.513107,308.909576 
	C150.408997,324.091553 192.438843,338.903900 234.425262,353.836273 
	C234.556839,353.883087 234.634674,354.080933 234.980820,354.509033 
	C232.432281,358.012604 229.925842,359.893555 224.859818,358.070862 
	C187.462036,344.615448 150.054749,331.168732 112.411705,318.424469 
	C102.267044,314.989899 94.292343,309.833832 88.325485,300.710480 
z"/>
<path fill="#F1F0F0" opacity="1.000000" stroke="none" 
	d="
M188.940308,358.906006 
	C159.996658,348.876129 131.386459,339.076202 102.923172,328.866760 
	C99.132339,327.507050 95.401756,324.627563 92.838326,321.478973 
	C87.496506,314.917725 82.829643,307.787659 78.163200,300.708252 
	C76.837631,298.697205 76.470451,296.054474 75.663757,293.701416 
	C76.167229,293.448486 76.670700,293.195557 77.174179,292.942627 
	C81.180305,298.078308 85.581352,302.958984 89.100906,308.408936 
	C94.509735,316.784424 101.866417,321.465332 111.340500,324.646027 
	C147.881805,336.914032 184.177567,349.913513 220.560837,362.651825 
	C220.861542,362.757080 221.107056,363.019958 221.833771,363.527069 
	C219.091400,366.682404 216.594406,368.862122 211.873901,366.982147 
	C204.471344,364.034027 196.848984,361.637817 188.940308,358.906006 
z"/>
<path fill="#ECEBEA" opacity="1.000000" stroke="none" 
	d="
M283.436615,248.898239 
	C272.290100,235.785843 261.246460,222.583038 249.884995,209.659607 
	C248.202408,207.745712 245.139130,206.623795 242.511917,206.025177 
	C199.858765,196.306442 157.172806,186.731766 114.494499,177.123520 
	C109.867500,176.081818 105.241936,175.033737 100.615707,173.988617 
	C100.591721,173.436096 100.567734,172.883575 100.543747,172.331055 
	C103.625694,171.896698 106.899864,170.557358 109.760468,171.164993 
	C147.023972,179.080276 184.228149,187.274780 221.449127,195.390396 
	C228.275452,196.878784 235.071106,198.558945 241.953049,199.725021 
	C247.622055,200.685577 251.511993,203.765289 254.976547,208.113220 
	C264.300751,219.814987 273.850769,231.336853 283.629547,242.916702 
	C283.947937,242.903275 283.865448,242.852798 283.865448,242.852798 
	C285.577332,245.662186 287.289185,248.471588 289.034760,251.969116 
	C288.634338,252.955917 287.882721,253.575241 287.812805,253.506012 
	C286.308167,252.016449 284.879761,250.449905 283.436615,248.898239 
z"/>
<path fill="#E9E9E7" opacity="1.000000" stroke="none" 
	d="
M282.182831,228.998688 
	C280.152832,225.584534 278.122864,222.170380 276.740173,218.218842 
	C279.829498,220.598770 282.271484,223.516083 284.713501,226.433395 
	C285.027771,228.574875 285.342010,230.716354 285.074951,232.836365 
	C284.024200,233.003296 283.554810,233.191711 283.085388,233.380127 
	C283.563751,233.922058 284.042145,234.464005 284.520508,235.005936 
	C286.176575,237.829483 287.832672,240.653030 289.488739,243.476562 
	C289.208771,243.736008 288.928833,243.995438 288.648865,244.254868 
	C287.299988,243.756668 285.951080,243.258453 284.233826,242.806519 
	C283.865448,242.852798 283.947937,242.903275 283.973938,242.940582 
	C282.181305,239.617294 280.756653,235.957550 278.473053,232.949936 
	C270.318939,222.210434 262.039948,211.553543 253.415466,201.192291 
	C251.370941,198.736038 248.002899,196.597382 244.895889,195.928787 
	C206.520264,187.670898 168.080444,179.711212 129.656158,171.679565 
	C125.107231,170.728714 120.552193,169.807083 115.999992,168.871902 
	C115.898743,168.373154 115.797501,167.874405 115.696251,167.375641 
	C118.600334,166.846283 121.685806,165.395416 124.381233,165.926010 
	C163.887192,173.702667 203.318527,181.858948 242.831024,189.601273 
	C249.005417,190.811127 253.301590,193.474899 256.945923,198.562714 
	C264.876434,209.634415 273.332306,220.329773 282.209900,231.054871 
	C282.625214,230.286774 282.404022,229.642731 282.182831,228.998688 
z"/>
<path fill="#EFEFEE" opacity="1.000000" stroke="none" 
	d="
M159.305756,354.835541 
	C175.990524,360.598114 192.297974,366.248688 208.859192,371.987183 
	C205.718781,376.102661 202.748947,377.142426 197.710236,375.327148 
	C174.094223,366.819092 150.117386,359.297089 126.606133,350.520813 
	C115.960350,346.546967 106.097382,340.476013 96.258820,334.367584 
	C117.574860,339.951019 138.127548,347.725922 159.305756,354.835541 
z"/>
<path fill="#E8E7E6" opacity="1.000000" stroke="none" 
	d="
M260.144440,187.969559 
	C257.344177,181.264542 252.462341,178.259995 245.097260,177.027832 
	C212.973465,171.653564 180.957474,165.634705 148.904663,159.837051 
	C147.343353,159.554657 145.804047,159.150635 144.254486,158.803268 
	C144.238403,158.283997 144.222321,157.764709 144.206238,157.245438 
	C147.339142,156.894867 150.601990,155.793365 153.584961,156.309464 
	C184.697495,161.692322 215.767410,167.322174 246.841171,172.927643 
	C249.579178,173.421539 252.261047,174.226654 255.431778,175.353760 
	C261.521606,183.992767 267.148621,192.165237 272.775635,200.337723 
	C276.175903,205.983795 279.576172,211.629868 283.002777,217.963776 
	C282.945709,218.959259 282.883362,219.275070 282.768799,219.570633 
	C282.720673,219.694839 282.562286,219.776352 282.454041,219.877289 
	C281.778473,218.967651 281.078156,218.075241 280.431152,217.145706 
	C273.664001,207.423737 266.905396,197.695831 260.144440,187.969559 
z"/>
<path fill="#E9E9E7" opacity="1.000000" stroke="none" 
	d="
M184.044983,173.858597 
	C177.829407,172.752121 171.613831,171.645645 164.921768,170.281342 
	C164.445282,170.023514 164.095505,169.973419 164.095505,169.973419 
	C153.644073,168.035675 143.192657,166.097931 132.371994,163.710297 
	C132.002090,162.869339 132.001419,162.478256 132.000763,162.087189 
	C134.706345,161.776733 137.464127,160.980759 140.105804,161.264816 
	C144.537140,161.741257 148.894501,162.905579 153.900040,164.164856 
	C154.952271,164.534760 155.387451,164.520279 155.822632,164.505798 
	C165.639420,166.283981 175.456192,168.062164 185.899536,170.207367 
	C186.955338,170.558594 187.384598,170.542801 187.813843,170.527008 
	C206.281906,173.902588 224.738037,177.345734 243.225388,180.612122 
	C248.685699,181.576874 254.270340,181.970932 257.559875,188.270187 
	C263.063354,196.221344 268.294250,203.584991 273.319977,211.086105 
	C273.987854,212.082916 273.613556,213.777954 273.721924,215.149643 
	C272.896271,214.560684 271.855835,214.131821 271.278809,213.357559 
	C266.411102,206.826080 261.346832,200.414017 256.918365,193.591705 
	C253.957901,189.030960 250.247345,186.886307 244.972702,185.920609 
	C225.524567,182.359940 206.150208,178.396332 186.286133,174.144012 
	C185.231094,173.755371 184.638046,173.806992 184.044983,173.858597 
z"/>
<path fill="#E9E9E7" opacity="1.000000" stroke="none" 
	d="
M255.986298,172.029373 
	C250.761215,170.771942 245.588821,169.202789 240.302216,168.309418 
	C213.122864,163.716507 185.913956,159.298645 158.719406,154.795166 
	C158.473434,154.754425 158.282852,154.379211 157.812653,153.903351 
	C161.639435,149.901749 166.014954,152.084808 170.942368,152.821823 
	C187.482513,155.542755 203.272537,158.106918 219.062576,160.671082 
	C230.337006,162.477890 241.648254,164.093292 252.855682,166.248550 
	C255.174149,166.694412 257.673370,168.745377 259.102356,170.757492 
	C262.375702,175.366623 265.039673,180.408554 267.947876,185.986542 
	C266.932953,186.094040 265.607391,185.720978 264.962799,184.846176 
	C261.869690,180.648285 258.960693,176.314728 255.986298,172.029373 
z"/>
<path fill="#DFDFDE" opacity="1.000000" stroke="none" 
	d="
M171.098709,148.050323 
	C181.092300,149.191177 191.145493,149.963242 201.064499,151.565781 
	C213.608032,153.592300 226.042374,156.294647 238.523712,158.706055 
	C244.734619,159.906006 250.945282,161.107208 257.156067,162.307846 
	C257.081268,162.798935 257.006470,163.290024 256.931671,163.781097 
	C244.570877,161.808044 232.210068,159.834976 219.116821,157.634750 
	C203.681244,155.102966 188.971039,152.841080 174.288544,150.411728 
	C173.126831,150.219513 172.157471,148.864792 171.098709,148.050323 
z"/>
<path fill="#E9E9E7" opacity="1.000000" stroke="none" 
	d="
M194.021103,379.670502 
	C194.285736,380.684082 194.498276,382.214294 194.075226,382.416809 
	C192.179230,383.324463 189.685593,384.921234 188.165894,384.327759 
	C182.795212,382.230377 177.718506,379.369873 172.564499,376.731964 
	C169.589874,375.209503 166.680847,373.558899 163.742294,371.965973 
	C163.970886,371.396027 164.199478,370.826111 164.428085,370.256165 
	C174.177505,373.362701 183.926941,376.469269 194.021103,379.670502 
z"/>
<path fill="#262525" opacity="1.000000" stroke="none" 
	d="
M170.760056,148.067902 
	C172.157471,148.864792 173.126831,150.219513 174.288544,150.411728 
	C188.971039,152.841080 203.681244,155.102966 218.701385,157.641571 
	C219.029984,158.574020 219.041565,159.272476 219.057861,160.320999 
	C203.272537,158.106918 187.482513,155.542755 171.313080,152.803238 
	C170.190262,151.716446 169.446869,150.805023 168.433594,149.562714 
	C168.865723,149.241577 169.643555,148.663513 170.760056,148.067902 
z"/>
<path fill="#262525" opacity="1.000000" stroke="none" 
	d="
M273.777893,215.160645 
	C273.613556,213.777954 273.987854,212.082916 273.319977,211.086105 
	C268.294250,203.584991 263.063354,196.221344 257.827026,188.471313 
	C258.287964,188.093384 258.818420,188.058868 259.746674,187.996948 
	C266.905396,197.695831 273.664001,207.423737 280.431152,217.145706 
	C281.078156,218.075241 281.778473,218.967651 282.454041,219.877289 
	C282.562286,219.776352 282.720673,219.694839 282.768799,219.570633 
	C282.883362,219.275070 282.945709,218.959259 283.120361,218.305420 
	C286.595612,219.874039 286.654053,222.586700 284.890411,226.063721 
	C282.271484,223.516083 279.829498,220.598770 277.131958,217.996902 
	C276.876404,218.312347 276.839722,218.196777 277.237488,217.824600 
	C276.397644,216.668259 275.160065,215.884079 273.922455,215.099915 
	C273.922455,215.099915 273.833832,215.171661 273.777893,215.160645 
z"/>
<path fill="#DFDFDE" opacity="1.000000" stroke="none" 
	d="
M75.927795,304.406311 
	C82.457291,313.373322 88.666565,322.509003 94.889877,331.665344 
	C89.072838,330.556030 86.942703,325.266937 83.649963,321.488525 
	C80.626686,318.019318 78.301285,313.880646 76.069260,309.816772 
	C75.296356,308.409515 75.726776,306.341309 75.927795,304.406311 
z"/>
<path fill="#262525" opacity="1.000000" stroke="none" 
	d="
M255.970123,172.570572 
	C258.960693,176.314728 261.869690,180.648285 264.962799,184.846176 
	C265.607391,185.720978 266.932953,186.094040 268.074371,186.330872 
	C272.518127,189.431320 274.470215,194.866348 272.937683,199.965881 
	C267.148621,192.165237 261.521606,183.992767 255.816025,175.542923 
	C255.809631,174.547638 255.881790,173.829697 255.970123,172.570572 
z"/>
<path fill="#262525" opacity="1.000000" stroke="none" 
	d="
M283.121735,249.059601 
	C284.879761,250.449905 286.308167,252.016449 287.812805,253.506012 
	C287.882721,253.575241 288.634338,252.955917 289.154236,252.306152 
	C292.856903,253.958344 290.725586,256.102905 289.236755,258.539246 
	C286.778412,256.481049 284.477478,254.111389 282.077271,251.423798 
	C282.254272,250.477554 282.530548,249.849243 283.121735,249.059601 
z"/>
<path fill="#E9E9E7" opacity="1.000000" stroke="none" 
	d="
M273.601532,215.434509 
	C275.160065,215.884079 276.397644,216.668259 277.275146,217.777100 
	C275.703552,217.324219 274.492096,216.546661 273.601532,215.434509 
z"/>
<path fill="#E8E7E6" opacity="1.000000" stroke="none" 
	d="
M284.630615,234.678101 
	C284.042145,234.464005 283.563751,233.922058 283.085388,233.380127 
	C283.554810,233.191711 284.024200,233.003296 284.750671,232.909134 
	C284.918732,233.452347 284.829712,233.901291 284.630615,234.678101 
z"/>
<path fill="#E8E7E6" opacity="1.000000" stroke="none" 
	d="
M282.126343,229.348663 
	C282.404022,229.642731 282.625214,230.286774 282.579742,231.004135 
	C282.232056,230.617844 282.150970,230.158249 282.126343,229.348663 
z"/>
<path fill="#E8E7E6" opacity="1.000000" stroke="none" 
	d="
M184.266388,173.989182 
	C184.638046,173.806992 185.231094,173.755371 185.913879,173.913986 
	C185.498322,174.122742 184.993073,174.121262 184.266388,173.989182 
z"/>
<path fill="#E8E7E6" opacity="1.000000" stroke="none" 
	d="
M131.714539,162.104446 
	C132.001419,162.478256 132.002090,162.869339 132.002106,163.553711 
	C131.534119,163.767044 131.066788,163.687073 130.599472,163.607086 
	C130.875748,163.111954 131.152039,162.616837 131.714539,162.104446 
z"/>
<path fill="#E8E7E6" opacity="1.000000" stroke="none" 
	d="
M187.552231,170.341888 
	C187.384598,170.542801 186.955338,170.558594 186.274170,170.361206 
	C186.445053,170.150925 186.867828,170.153839 187.552231,170.341888 
z"/>
<path fill="#E8E7E6" opacity="1.000000" stroke="none" 
	d="
M164.162292,170.067505 
	C164.095505,169.973419 164.445282,170.023514 164.532684,170.035721 
	C164.620102,170.047928 164.229065,170.161591 164.162292,170.067505 
z"/>
<path fill="#E8E7E6" opacity="1.000000" stroke="none" 
	d="
M155.560486,164.314575 
	C155.387451,164.520279 154.952271,164.534760 154.266541,164.326355 
	C154.443436,164.110092 154.870880,164.116714 155.560486,164.314575 
z"/>
<path fill="#100F10" opacity="1.000000" stroke="none" 
	d="
M618.811829,271.703827 
	C619.032288,264.337708 622.991638,260.150696 629.458618,259.870026 
	C637.100830,259.538361 640.864014,262.828064 642.515991,271.859375 
	C634.674011,271.859375 626.941162,271.859375 618.811829,271.703827 
z"/>
</svg>