<svg version="1.1" id="Layer_1" xmlns="http://www.w3.org/2000/svg"
	xmlns:xlink="http://www.w3.org/1999/xlink" x="0px" y="0px"
	width="100%" viewBox="0 0 250 250" enable-background="new 0 0 250 250" xml:space="preserve">
<path fill="#FF017B" opacity="1.000000" stroke="none" 
	d="
M1.000000,201.000000 
	C1.000000,134.368408 1.000000,67.736801 1.000000,1.052601 
	C84.254402,1.052601 167.508850,1.052601 250.881653,1.052601 
	C250.881653,84.210449 250.881653,167.421112 250.881653,251.000000 
	C207.313126,251.000000 163.625229,251.000000 119.345078,250.672119 
	C98.677147,243.614380 99.314735,217.554657 114.414253,208.003403 
	C117.367249,206.135452 120.173248,204.034470 123.132988,202.177994 
	C133.857285,195.451233 142.145676,186.629410 147.135590,174.854385 
	C147.579712,173.806366 148.765091,172.315674 149.612762,172.311325 
	C159.149704,172.262421 168.692932,172.650131 176.860275,178.475784 
	C180.249695,180.893402 181.524536,184.406906 180.428375,188.621384 
	C179.355972,192.744522 176.432938,194.759033 172.501968,195.067978 
	C169.395401,195.312149 166.220383,194.610275 163.099518,194.776031 
	C161.258224,194.873825 158.664352,195.272873 157.778137,196.514053 
	C152.379822,204.074707 151.285538,212.844284 151.043732,221.998245 
	C175.387726,217.131760 195.862885,193.922424 198.804306,171.205521 
	C185.215652,166.868240 173.096008,159.825790 162.388382,150.313797 
	C155.692871,144.365936 155.580032,144.385544 159.885513,136.342819 
	C164.286224,128.122238 169.654617,120.766724 178.981354,117.587959 
	C184.951813,115.553093 191.210083,117.265076 194.404236,121.512993 
	C197.422668,125.527214 197.329086,130.322342 193.397980,135.805450 
	C191.684875,138.194916 191.940308,139.922409 193.280411,142.064896 
	C198.968781,151.159119 207.337967,156.324738 218.247406,159.109467 
	C217.932373,156.441956 217.882309,154.150650 217.367386,151.969055 
	C214.578629,140.154007 211.405609,128.422134 208.934052,116.543198 
	C207.838730,111.278816 205.449478,108.061081 200.473206,106.103653 
	C195.846405,104.283691 191.359909,101.984299 187.076584,99.448479 
	C182.817444,96.926987 179.756531,97.302910 175.772202,100.610222 
	C163.692963,110.636963 150.516586,119.075668 135.719513,124.637383 
	C133.956238,125.300140 131.008072,125.694008 129.881165,124.728233 
	C115.831276,112.687416 107.602333,97.920486 110.007072,78.760536 
	C110.897850,71.663231 114.527527,66.255402 120.182571,63.282520 
	C125.063660,71.021996 129.602219,78.131462 134.044693,85.300468 
	C136.141052,88.683456 138.339020,92.049904 139.987228,95.654198 
	C143.100082,102.461357 144.955536,103.362595 152.052750,101.043648 
	C155.429062,99.940475 156.436096,98.651352 155.611389,94.592186 
	C153.298950,83.210518 151.907959,71.640846 150.187149,60.140293 
	C149.705444,56.920994 150.921890,55.422428 154.413055,54.930553 
	C167.261002,53.120396 180.059357,50.958454 192.877151,48.933929 
	C196.690811,48.331577 199.286255,46.487358 199.826462,42.419727 
	C199.397293,42.194092 199.124817,41.925270 198.852646,41.925568 
	C167.695160,41.959648 136.511551,41.263645 105.390030,42.348091 
	C86.723892,42.998524 71.641487,52.032028 62.634979,69.215683 
	C60.813351,72.691193 59.940044,76.663750 58.763420,80.024727 
	C66.146317,76.828835 73.214935,74.057175 80.002296,70.714432 
	C83.624611,68.930458 86.735031,66.120735 90.137360,63.865829 
	C90.893967,63.364391 91.906677,63.249386 93.354752,62.775330 
	C92.936432,64.433624 92.803902,65.252838 92.525520,66.019073 
	C87.127480,80.877174 76.113785,89.086945 60.989857,91.983635 
	C56.594891,92.825401 53.664288,94.619179 52.299614,98.841751 
	C49.802406,106.568619 47.125824,114.245682 44.926525,122.056831 
	C43.986904,125.394073 44.057251,129.015671 43.668667,132.508057 
	C51.809254,123.317680 61.847912,117.749962 71.728355,111.952324 
	C77.859680,108.354584 83.132011,103.881935 86.098488,97.155640 
	C86.411804,96.445213 87.346146,96.008667 87.992371,95.445061 
	C88.477211,95.637558 88.962059,95.830063 89.446899,96.022560 
	C88.507935,100.055473 88.026398,104.264778 86.551010,108.090836 
	C80.086365,124.855293 67.287079,135.691360 51.175220,141.975861 
	C43.008949,145.161163 39.598057,150.610947 37.145557,157.852036 
	C36.505352,159.742279 35.762993,161.621964 35.370338,163.567612 
	C34.044075,170.139435 32.074150,176.699799 33.672810,182.626617 
	C41.534077,176.775635 49.291992,170.864304 57.199886,165.160934 
	C63.135632,160.879929 69.403839,157.053604 75.268295,152.681808 
	C81.345779,148.151215 86.321114,142.604706 89.072632,135.317612 
	C89.444893,134.331726 90.652679,133.661301 91.473587,132.844818 
	C91.821945,133.947479 92.602745,135.112457 92.454140,136.143494 
	C90.012199,153.085754 82.387482,167.448975 69.930450,179.046387 
	C50.475788,197.158569 27.359982,204.304001 1.000000,201.000000 
z"/>
<path fill="#FFFDFE" opacity="1.000000" stroke="none" 
	d="
M1.000000,201.468658 
	C27.359982,204.304001 50.475788,197.158569 69.930450,179.046387 
	C82.387482,167.448975 90.012199,153.085754 92.454140,136.143494 
	C92.602745,135.112457 91.821945,133.947479 91.473587,132.844818 
	C90.652679,133.661301 89.444893,134.331726 89.072632,135.317612 
	C86.321114,142.604706 81.345779,148.151215 75.268295,152.681808 
	C69.403839,157.053604 63.135632,160.879929 57.199886,165.160934 
	C49.291992,170.864304 41.534077,176.775635 33.672810,182.626617 
	C32.074150,176.699799 34.044075,170.139435 35.370338,163.567612 
	C35.762993,161.621964 36.505352,159.742279 37.145557,157.852036 
	C39.598057,150.610947 43.008949,145.161163 51.175220,141.975861 
	C67.287079,135.691360 80.086365,124.855293 86.551010,108.090836 
	C88.026398,104.264778 88.507935,100.055473 89.446899,96.022560 
	C88.962059,95.830063 88.477211,95.637558 87.992371,95.445061 
	C87.346146,96.008667 86.411804,96.445213 86.098488,97.155640 
	C83.132011,103.881935 77.859680,108.354584 71.728355,111.952324 
	C61.847912,117.749962 51.809254,123.317680 43.668667,132.508057 
	C44.057251,129.015671 43.986904,125.394073 44.926525,122.056831 
	C47.125824,114.245682 49.802406,106.568619 52.299614,98.841751 
	C53.664288,94.619179 56.594891,92.825401 60.989857,91.983635 
	C76.113785,89.086945 87.127480,80.877174 92.525520,66.019073 
	C92.803902,65.252838 92.936432,64.433624 93.354752,62.775330 
	C91.906677,63.249386 90.893967,63.364391 90.137360,63.865829 
	C86.735031,66.120735 83.624611,68.930458 80.002296,70.714432 
	C73.214935,74.057175 66.146317,76.828835 58.763420,80.024727 
	C59.940044,76.663750 60.813351,72.691193 62.634979,69.215683 
	C71.641487,52.032028 86.723892,42.998524 105.390030,42.348091 
	C136.511551,41.263645 167.695160,41.959648 198.852646,41.925568 
	C199.124817,41.925270 199.397293,42.194092 199.826462,42.419727 
	C199.286255,46.487358 196.690811,48.331577 192.877151,48.933929 
	C180.059357,50.958454 167.261002,53.120396 154.413055,54.930553 
	C150.921890,55.422428 149.705444,56.920994 150.187149,60.140293 
	C151.907959,71.640846 153.298950,83.210518 155.611389,94.592186 
	C156.436096,98.651352 155.429062,99.940475 152.052750,101.043648 
	C144.955536,103.362595 143.100082,102.461357 139.987228,95.654198 
	C138.339020,92.049904 136.141052,88.683456 134.044693,85.300468 
	C129.602219,78.131462 125.063660,71.021996 120.182571,63.282520 
	C114.527527,66.255402 110.897850,71.663231 110.007072,78.760536 
	C107.602333,97.920486 115.831276,112.687416 129.881165,124.728233 
	C131.008072,125.694008 133.956238,125.300140 135.719513,124.637383 
	C150.516586,119.075668 163.692963,110.636963 175.772202,100.610222 
	C179.756531,97.302910 182.817444,96.926987 187.076584,99.448479 
	C191.359909,101.984299 195.846405,104.283691 200.473206,106.103653 
	C205.449478,108.061081 207.838730,111.278816 208.934052,116.543198 
	C211.405609,128.422134 214.578629,140.154007 217.367386,151.969055 
	C217.882309,154.150650 217.932373,156.441956 218.247406,159.109467 
	C207.337967,156.324738 198.968781,151.159119 193.280411,142.064896 
	C191.940308,139.922409 191.684875,138.194916 193.397980,135.805450 
	C197.329086,130.322342 197.422668,125.527214 194.404236,121.512993 
	C191.210083,117.265076 184.951813,115.553093 178.981354,117.587959 
	C169.654617,120.766724 164.286224,128.122238 159.885513,136.342819 
	C155.580032,144.385544 155.692871,144.365936 162.388382,150.313797 
	C173.096008,159.825790 185.215652,166.868240 198.804306,171.205521 
	C195.862885,193.922424 175.387726,217.131760 151.043732,221.998245 
	C151.285538,212.844284 152.379822,204.074707 157.778137,196.514053 
	C158.664352,195.272873 161.258224,194.873825 163.099518,194.776031 
	C166.220383,194.610275 169.395401,195.312149 172.501968,195.067978 
	C176.432938,194.759033 179.355972,192.744522 180.428375,188.621384 
	C181.524536,184.406906 180.249695,180.893402 176.860275,178.475784 
	C168.692932,172.650131 159.149704,172.262421 149.612762,172.311325 
	C148.765091,172.315674 147.579712,173.806366 147.135590,174.854385 
	C142.145676,186.629410 133.857285,195.451233 123.132988,202.177994 
	C120.173248,204.034470 117.367249,206.135452 114.414253,208.003403 
	C99.314735,217.554657 98.677147,243.614380 118.876419,250.672119 
	C79.769356,251.000000 40.538712,251.000000 1.000000,251.000000 
	C1.000000,234.647064 1.000000,218.292191 1.000000,201.468658 
z"/>
</svg>