<svg id="visual" viewBox="0 0 900 600" width="900" height="600" xmlns="http://www.w3.org/2000/svg" xmlns:xlink="http://www.w3.org/1999/xlink" version="1.1"><path d="M0 151L13.7 150C27.3 149 54.7 147 82 143C109.3 139 136.7 133 163.8 117C191 101 218 75 245.2 71C272.3 67 299.7 85 327 99C354.3 113 381.7 123 409 125C436.3 127 463.7 121 491 119C518.3 117 545.7 119 573 119C600.3 119 627.7 117 654.8 107C682 97 709 79 736.2 81C763.3 83 790.7 105 818 108C845.3 111 872.7 95 886.3 87L900 79L900 0L886.3 0C872.7 0 845.3 0 818 0C790.7 0 763.3 0 736.2 0C709 0 682 0 654.8 0C627.7 0 600.3 0 573 0C545.7 0 518.3 0 491 0C463.7 0 436.3 0 409 0C381.7 0 354.3 0 327 0C299.7 0 272.3 0 245.2 0C218 0 191 0 163.8 0C136.7 0 109.3 0 82 0C54.7 0 27.3 0 13.7 0L0 0Z" fill="#6198ff"></path><path d="M0 289L13.7 295C27.3 301 54.7 313 82 312C109.3 311 136.7 297 163.8 289C191 281 218 279 245.2 274C272.3 269 299.7 261 327 260C354.3 259 381.7 265 409 261C436.3 257 463.7 243 491 233C518.3 223 545.7 217 573 237C600.3 257 627.7 303 654.8 302C682 301 709 253 736.2 252C763.3 251 790.7 297 818 303C845.3 309 872.7 275 886.3 258L900 241L900 77L886.3 85C872.7 93 845.3 109 818 106C790.7 103 763.3 81 736.2 79C709 77 682 95 654.8 105C627.7 115 600.3 117 573 117C545.7 117 518.3 115 491 117C463.7 119 436.3 125 409 123C381.7 121 354.3 111 327 97C299.7 83 272.3 65 245.2 69C218 73 191 99 163.8 115C136.7 131 109.3 137 82 141C54.7 145 27.3 147 13.7 148L0 149Z" fill="#3c80ff"></path><path d="M0 439L13.7 436C27.3 433 54.7 427 82 418C109.3 409 136.7 397 163.8 398C191 399 218 413 245.2 419C272.3 425 299.7 423 327 424C354.3 425 381.7 429 409 439C436.3 449 463.7 465 491 463C518.3 461 545.7 441 573 441C600.3 441 627.7 461 654.8 461C682 461 709 441 736.2 438C763.3 435 790.7 449 818 452C845.3 455 872.7 447 886.3 443L900 439L900 239L886.3 256C872.7 273 845.3 307 818 301C790.7 295 763.3 249 736.2 250C709 251 682 299 654.8 300C627.7 301 600.3 255 573 235C545.7 215 518.3 221 491 231C463.7 241 436.3 255 409 259C381.7 263 354.3 257 327 258C299.7 259 272.3 267 245.2 272C218 277 191 279 163.8 287C136.7 295 109.3 309 82 310C54.7 311 27.3 299 13.7 293L0 287Z" fill="#0066ff"></path><path d="M0 505L13.7 505C27.3 505 54.7 505 82 501C109.3 497 136.7 489 163.8 489C191 489 218 497 245.2 497C272.3 497 299.7 489 327 488C354.3 487 381.7 493 409 501C436.3 509 463.7 519 491 523C518.3 527 545.7 525 573 529C600.3 533 627.7 543 654.8 540C682 537 709 521 736.2 521C763.3 521 790.7 537 818 537C845.3 537 872.7 521 886.3 513L900 505L900 437L886.3 441C872.7 445 845.3 453 818 450C790.7 447 763.3 433 736.2 436C709 439 682 459 654.8 459C627.7 459 600.3 439 573 439C545.7 439 518.3 459 491 461C463.7 463 436.3 447 409 437C381.7 427 354.3 423 327 422C299.7 421 272.3 423 245.2 417C218 411 191 397 163.8 396C136.7 395 109.3 407 82 416C54.7 425 27.3 431 13.7 434L0 437Z" fill="#0059dd"></path><path d="M0 601L13.7 601C27.3 601 54.7 601 82 601C109.3 601 136.7 601 163.8 601C191 601 218 601 245.2 601C272.3 601 299.7 601 327 601C354.3 601 381.7 601 409 601C436.3 601 463.7 601 491 601C518.3 601 545.7 601 573 601C600.3 601 627.7 601 654.8 601C682 601 709 601 736.2 601C763.3 601 790.7 601 818 601C845.3 601 872.7 601 886.3 601L900 601L900 503L886.3 511C872.7 519 845.3 535 818 535C790.7 535 763.3 519 736.2 519C709 519 682 535 654.8 538C627.7 541 600.3 531 573 527C545.7 523 518.3 525 491 521C463.7 517 436.3 507 409 499C381.7 491 354.3 485 327 486C299.7 487 272.3 495 245.2 495C218 495 191 487 163.8 487C136.7 487 109.3 495 82 499C54.7 503 27.3 503 13.7 503L0 503Z" fill="#004cbb"></path></svg>